<mxfile host="app.diagrams.net" agent="Mozilla/5.0 (Windows NT 10.0; Win64; x64) AppleWebKit/537.36 (KHTML, like Gecko) Chrome/130.0.0.0 Safari/537.36" version="25.0.3">
  <diagram name="Java Pet Store" id="9xZnn6iOGgZrdTnuinuC">
    <mxGraphModel dx="1646" dy="941" grid="1" gridSize="10" guides="1" tooltips="1" connect="1" arrows="1" fold="1" page="1" pageScale="1" pageWidth="850" pageHeight="1100" math="0" shadow="0">
      <root>
        <mxCell id="0" />
        <mxCell id="1" parent="0" />
        <mxCell id="PsvIKM5DuwZDQl5se1ra-1" value="Client Tier" style="swimlane;horizontal=0;" vertex="1" parent="1">
          <mxGeometry x="50" y="50" width="150" height="600" as="geometry" />
        </mxCell>
        <mxCell id="PsvIKM5DuwZDQl5se1ra-2" value="Browser" style="rounded=1;whiteSpace=wrap;html=1;" vertex="1" parent="PsvIKM5DuwZDQl5se1ra-1">
          <mxGeometry x="25" y="50" width="100" height="40" as="geometry" />
        </mxCell>
        <mxCell id="PsvIKM5DuwZDQl5se1ra-18" value="" style="shape=flexArrow;endArrow=classic;html=1;rounded=0;entryX=0;entryY=0.25;entryDx=0;entryDy=0;" edge="1" parent="PsvIKM5DuwZDQl5se1ra-1" target="PsvIKM5DuwZDQl5se1ra-4">
          <mxGeometry width="50" height="50" relative="1" as="geometry">
            <mxPoint x="125" y="80" as="sourcePoint" />
            <mxPoint x="230" y="70" as="targetPoint" />
          </mxGeometry>
        </mxCell>
        <mxCell id="PsvIKM5DuwZDQl5se1ra-3" value="Web Tier" style="swimlane;horizontal=0;" vertex="1" parent="1">
          <mxGeometry x="250" y="50" width="150" height="600" as="geometry" />
        </mxCell>
        <mxCell id="PsvIKM5DuwZDQl5se1ra-4" value="Web Front-End Component" style="rounded=1;whiteSpace=wrap;html=1;" vertex="1" parent="PsvIKM5DuwZDQl5se1ra-3">
          <mxGeometry x="40" y="50" width="100" height="40" as="geometry" />
        </mxCell>
        <mxCell id="PsvIKM5DuwZDQl5se1ra-5" value="Web Tier Control Component" style="rounded=1;whiteSpace=wrap;html=1;" vertex="1" parent="PsvIKM5DuwZDQl5se1ra-3">
          <mxGeometry x="40" y="150" width="100" height="40" as="geometry" />
        </mxCell>
        <mxCell id="PsvIKM5DuwZDQl5se1ra-22" value="" style="endArrow=classic;html=1;rounded=0;exitX=0.5;exitY=1;exitDx=0;exitDy=0;" edge="1" parent="PsvIKM5DuwZDQl5se1ra-3" source="PsvIKM5DuwZDQl5se1ra-4">
          <mxGeometry width="50" height="50" relative="1" as="geometry">
            <mxPoint x="102" y="90" as="sourcePoint" />
            <mxPoint x="90" y="140" as="targetPoint" />
          </mxGeometry>
        </mxCell>
        <mxCell id="PsvIKM5DuwZDQl5se1ra-12" value="Information Tier" style="swimlane;horizontal=0;" vertex="1" parent="1">
          <mxGeometry x="750" y="50" width="150" height="600" as="geometry" />
        </mxCell>
        <mxCell id="PsvIKM5DuwZDQl5se1ra-13" value="Catalog Database" style="ellipse;whiteSpace=wrap;html=1;" vertex="1" parent="PsvIKM5DuwZDQl5se1ra-12">
          <mxGeometry x="40" y="150" width="100" height="60" as="geometry" />
        </mxCell>
        <mxCell id="PsvIKM5DuwZDQl5se1ra-14" value="User Database" style="ellipse;whiteSpace=wrap;html=1;" vertex="1" parent="PsvIKM5DuwZDQl5se1ra-12">
          <mxGeometry x="40" y="250" width="100" height="60" as="geometry" />
        </mxCell>
        <mxCell id="PsvIKM5DuwZDQl5se1ra-15" value="Account Database" style="ellipse;whiteSpace=wrap;html=1;" vertex="1" parent="PsvIKM5DuwZDQl5se1ra-12">
          <mxGeometry x="40" y="350" width="100" height="60" as="geometry" />
        </mxCell>
        <mxCell id="PsvIKM5DuwZDQl5se1ra-6" value="Application Logic Tier (EJB Tier)" style="swimlane;horizontal=0;" vertex="1" parent="1">
          <mxGeometry x="450" y="50" width="250" height="600" as="geometry" />
        </mxCell>
        <mxCell id="PsvIKM5DuwZDQl5se1ra-7" value="EJB Tier Control Component" style="rounded=1;whiteSpace=wrap;html=1;" vertex="1" parent="PsvIKM5DuwZDQl5se1ra-6">
          <mxGeometry x="75" y="50" width="100" height="40" as="geometry" />
        </mxCell>
        <mxCell id="PsvIKM5DuwZDQl5se1ra-8" value="Shopping Cart Component" style="rounded=1;whiteSpace=wrap;html=1;" vertex="1" parent="PsvIKM5DuwZDQl5se1ra-6">
          <mxGeometry x="70" y="170" width="150" height="40" as="geometry" />
        </mxCell>
        <mxCell id="PsvIKM5DuwZDQl5se1ra-9" value="Catalog Component" style="rounded=1;whiteSpace=wrap;html=1;" vertex="1" parent="PsvIKM5DuwZDQl5se1ra-6">
          <mxGeometry x="70" y="270" width="150" height="40" as="geometry" />
        </mxCell>
        <mxCell id="PsvIKM5DuwZDQl5se1ra-10" value="Signon Component" style="rounded=1;whiteSpace=wrap;html=1;" vertex="1" parent="PsvIKM5DuwZDQl5se1ra-6">
          <mxGeometry x="70" y="370" width="150" height="40" as="geometry" />
        </mxCell>
        <mxCell id="PsvIKM5DuwZDQl5se1ra-11" value="Customer Information Component" style="rounded=1;whiteSpace=wrap;html=1;" vertex="1" parent="PsvIKM5DuwZDQl5se1ra-6">
          <mxGeometry x="70" y="470" width="150" height="40" as="geometry" />
        </mxCell>
        <mxCell id="PsvIKM5DuwZDQl5se1ra-20" value="" style="endArrow=classic;html=1;rounded=0;exitX=0.25;exitY=1;exitDx=0;exitDy=0;entryX=0.25;entryY=0;entryDx=0;entryDy=0;" edge="1" parent="PsvIKM5DuwZDQl5se1ra-6" target="PsvIKM5DuwZDQl5se1ra-8">
          <mxGeometry width="50" height="50" relative="1" as="geometry">
            <mxPoint x="110" y="90" as="sourcePoint" />
            <mxPoint x="110" y="160" as="targetPoint" />
          </mxGeometry>
        </mxCell>
        <mxCell id="PsvIKM5DuwZDQl5se1ra-21" value="" style="endArrow=classic;html=1;rounded=0;exitX=0.599;exitY=0.975;exitDx=0;exitDy=0;exitPerimeter=0;entryX=0.669;entryY=0.046;entryDx=0;entryDy=0;entryPerimeter=0;" edge="1" parent="PsvIKM5DuwZDQl5se1ra-6" source="PsvIKM5DuwZDQl5se1ra-7" target="PsvIKM5DuwZDQl5se1ra-9">
          <mxGeometry width="50" height="50" relative="1" as="geometry">
            <mxPoint x="110" y="100" as="sourcePoint" />
            <mxPoint x="160" y="250" as="targetPoint" />
          </mxGeometry>
        </mxCell>
        <mxCell id="PsvIKM5DuwZDQl5se1ra-23" value="" style="endArrow=classic;html=1;rounded=0;exitX=0.5;exitY=1;exitDx=0;exitDy=0;" edge="1" parent="PsvIKM5DuwZDQl5se1ra-6" source="PsvIKM5DuwZDQl5se1ra-7" target="PsvIKM5DuwZDQl5se1ra-10">
          <mxGeometry width="50" height="50" relative="1" as="geometry">
            <mxPoint x="120" y="100" as="sourcePoint" />
            <mxPoint x="180" y="282" as="targetPoint" />
          </mxGeometry>
        </mxCell>
        <mxCell id="PsvIKM5DuwZDQl5se1ra-28" value="" style="shape=flexArrow;endArrow=classic;html=1;rounded=0;entryX=0;entryY=0.5;entryDx=0;entryDy=0;exitX=1;exitY=0.25;exitDx=0;exitDy=0;" edge="1" parent="PsvIKM5DuwZDQl5se1ra-6">
          <mxGeometry width="50" height="50" relative="1" as="geometry">
            <mxPoint x="220" y="500" as="sourcePoint" />
            <mxPoint x="340" y="390" as="targetPoint" />
          </mxGeometry>
        </mxCell>
        <mxCell id="PsvIKM5DuwZDQl5se1ra-17" value="" style="shape=flexArrow;endArrow=classic;html=1;rounded=0;exitX=1;exitY=0.75;exitDx=0;exitDy=0;" edge="1" parent="1" source="PsvIKM5DuwZDQl5se1ra-5">
          <mxGeometry width="50" height="50" relative="1" as="geometry">
            <mxPoint x="400" y="510" as="sourcePoint" />
            <mxPoint x="520" y="130" as="targetPoint" />
          </mxGeometry>
        </mxCell>
        <mxCell id="PsvIKM5DuwZDQl5se1ra-24" value="" style="endArrow=classic;html=1;rounded=0;" edge="1" parent="1" target="PsvIKM5DuwZDQl5se1ra-11">
          <mxGeometry width="50" height="50" relative="1" as="geometry">
            <mxPoint x="560" y="140" as="sourcePoint" />
            <mxPoint x="603" y="430" as="targetPoint" />
          </mxGeometry>
        </mxCell>
        <mxCell id="PsvIKM5DuwZDQl5se1ra-25" value="" style="shape=flexArrow;endArrow=classic;html=1;rounded=0;entryX=0;entryY=0.25;entryDx=0;entryDy=0;exitX=1;exitY=0.25;exitDx=0;exitDy=0;" edge="1" parent="1" source="PsvIKM5DuwZDQl5se1ra-8">
          <mxGeometry width="50" height="50" relative="1" as="geometry">
            <mxPoint x="680" y="250" as="sourcePoint" />
            <mxPoint x="795" y="230" as="targetPoint" />
          </mxGeometry>
        </mxCell>
        <mxCell id="PsvIKM5DuwZDQl5se1ra-26" value="" style="shape=flexArrow;endArrow=classic;html=1;rounded=0;entryX=0;entryY=1;entryDx=0;entryDy=0;exitX=1;exitY=0.25;exitDx=0;exitDy=0;" edge="1" parent="1" target="PsvIKM5DuwZDQl5se1ra-13">
          <mxGeometry width="50" height="50" relative="1" as="geometry">
            <mxPoint x="670" y="340" as="sourcePoint" />
            <mxPoint x="795" y="340" as="targetPoint" />
          </mxGeometry>
        </mxCell>
        <mxCell id="PsvIKM5DuwZDQl5se1ra-27" value="" style="shape=flexArrow;endArrow=classic;html=1;rounded=0;entryX=0;entryY=0.5;entryDx=0;entryDy=0;exitX=1;exitY=0.25;exitDx=0;exitDy=0;" edge="1" parent="1" target="PsvIKM5DuwZDQl5se1ra-14">
          <mxGeometry width="50" height="50" relative="1" as="geometry">
            <mxPoint x="670" y="440" as="sourcePoint" />
            <mxPoint x="795" y="440" as="targetPoint" />
          </mxGeometry>
        </mxCell>
      </root>
    </mxGraphModel>
  </diagram>
</mxfile>
